<?xml version="1.0" encoding="UTF-8" standalone="no"?>
<!DOCTYPE svg PUBLIC "-//W3C//DTD SVG 1.1//EN" "http://www.w3.org/Graphics/SVG/1.1/DTD/svg11.dtd">
<svg width="100%" height="100%" viewBox="0 0 512 512" version="1.1" xmlns="http://www.w3.org/2000/svg" xmlns:xlink="http://www.w3.org/1999/xlink" xml:space="preserve" xmlns:serif="http://www.serif.com/" style="fill-rule:evenodd;clip-rule:evenodd;stroke-linejoin:round;stroke-miterlimit:2;">
    <g>
        <g transform="matrix(1.02228,0,0,1.03119,-5.70467,1.41705)">
            <path d="M98.415,224.564L98.415,163.719C98.415,82.797 168.893,17.313 255.999,17.313C342.955,17.313 413.585,84.864 413.585,163.72L413.585,224.564L360.284,179.487L360.284,166.905C360.284,114.463 313.566,69.719 255.999,69.719C198.435,69.719 151.716,113.248 151.716,166.906L151.716,179.488L98.415,224.564Z" style="fill:white;"/>
        </g>
        <g transform="matrix(1.02228,0,0,1.03119,-5.70467,1.41705)">
            <path d="M256,107.367L467.602,286.318L473.45,291.261L461.757,301.15L455.912,296.204L256,127.143L56.088,296.204L50.243,301.15L38.55,291.261L44.398,286.319L256,107.367ZM256,145.786L432.363,294.933L432.363,469.927L79.637,469.927L79.637,294.933L256,145.786ZM255.719,278.625L255.718,278.628C233.378,278.628 215.406,296.57 215.406,318.908C215.406,335.662 225.412,350.137 239.938,356.282L207.813,454.407L304.189,454.407L271.469,356.281C285.994,350.135 296.594,335.661 296.594,318.905C296.594,296.565 278.059,278.625 255.719,278.625Z" style="fill:white;fill-rule:nonzero;"/>
        </g>
    </g>
</svg>
